<svg xmlns="http://www.w3.org/2000/svg" xmlns:xlink="http://www.w3.org/1999/xlink" viewBox="0 0 1251.4 247.2"><defs><style>.cls-1{isolation:isolate;}.cls-2{fill:#270000;}.cls-3{fill:url(#linear-gradient);}.cls-4{fill:url(#linear-gradient-2);}.cls-5{fill:url(#linear-gradient-3);}.cls-6{fill:url(#linear-gradient-4);}.cls-7{fill:url(#linear-gradient-5);}.cls-8{fill:url(#linear-gradient-6);}.cls-9{fill:url(#linear-gradient-7);}.cls-10{fill:url(#linear-gradient-8);}.cls-11{fill:url(#linear-gradient-9);}.cls-12{fill:url(#linear-gradient-10);}.cls-13{fill:url(#linear-gradient-11);}.cls-14{fill:url(#linear-gradient-12);}.cls-15{fill:url(#linear-gradient-13);}.cls-16{fill:url(#linear-gradient-14);}.cls-17{fill:url(#linear-gradient-15);}.cls-18{fill:url(#linear-gradient-16);}.cls-19{fill:url(#linear-gradient-17);}.cls-20{fill:url(#linear-gradient-18);}.cls-21{fill:url(#linear-gradient-19);}.cls-22{fill:url(#linear-gradient-20);}.cls-23{mix-blend-mode:overlay;}.cls-24{fill:none;}</style><linearGradient id="linear-gradient" x1="46.25" y1="1824.6" x2="46.25" y2="1771.8" gradientTransform="translate(0 -1660)" gradientUnits="userSpaceOnUse"><stop offset="0" stop-color="#270000"/><stop offset="1" stop-color="#8e0000"/></linearGradient><linearGradient id="linear-gradient-2" x1="129" y1="1824.6" x2="129" y2="1771.8" xlink:href="#linear-gradient"/><linearGradient id="linear-gradient-3" x1="87.35" y1="1771.8" x2="87.35" y2="1675" gradientTransform="translate(0 -1660)" gradientUnits="userSpaceOnUse"><stop offset="0" stop-color="#b10003"/><stop offset="1" stop-color="#ff4f00"/></linearGradient><linearGradient id="linear-gradient-4" x1="232.3" y1="1892.2" x2="232.3" y2="1840.5" xlink:href="#linear-gradient"/><linearGradient id="linear-gradient-5" x1="476.71" y1="2232.32" x2="476.71" y2="2066.82" gradientTransform="translate(-240.41 -2051.82)" xlink:href="#linear-gradient-3"/><linearGradient id="linear-gradient-6" x1="360.2" y1="1892.2" x2="360.2" y2="1840.5" xlink:href="#linear-gradient"/><linearGradient id="linear-gradient-7" x1="644.21" y1="2232.32" x2="644.21" y2="2066.82" gradientTransform="translate(-240.41 -2051.82)" xlink:href="#linear-gradient-3"/><linearGradient id="linear-gradient-8" x1="1122.4" y1="1824.6" x2="1122.4" y2="1771.8" xlink:href="#linear-gradient"/><linearGradient id="linear-gradient-9" x1="1164.05" y1="1771.8" x2="1164.05" xlink:href="#linear-gradient-3"/><linearGradient id="linear-gradient-10" x1="1205.1" y1="1824.6" x2="1205.1" y2="1771.8" xlink:href="#linear-gradient"/><linearGradient id="linear-gradient-11" x1="975.95" y1="1892.2" x2="975.95" y2="1840.5" xlink:href="#linear-gradient"/><linearGradient id="linear-gradient-12" x1="1060.75" y1="1892.2" x2="1060.75" y2="1840.5" xlink:href="#linear-gradient"/><linearGradient id="linear-gradient-13" x1="1255.51" y1="2232.32" x2="1255.51" y2="2066.82" gradientTransform="translate(-240.41 -2051.82)" xlink:href="#linear-gradient-3"/><linearGradient id="linear-gradient-14" x1="785.2" y1="1892.2" x2="785.2" y2="1840.5" xlink:href="#linear-gradient"/><linearGradient id="linear-gradient-15" x1="837.55" y1="1840.5" x2="837.55" xlink:href="#linear-gradient-3"/><linearGradient id="linear-gradient-16" x1="891.2" y1="1892.2" x2="891.2" y2="1840.5" xlink:href="#linear-gradient"/><linearGradient id="linear-gradient-17" x1="700.4" y1="1892.2" x2="700.4" y2="1840.5" xlink:href="#linear-gradient"/><linearGradient id="linear-gradient-18" x1="699.9" y1="1840.5" x2="699.9" xlink:href="#linear-gradient-3"/><linearGradient id="linear-gradient-19" x1="572.15" y1="1892.2" x2="572.15" y2="1840.5" xlink:href="#linear-gradient"/><linearGradient id="linear-gradient-20" x1="574.35" y1="1840.5" x2="574.35" xlink:href="#linear-gradient-3"/></defs><g class="cls-1"><g id="Layer_1" data-name="Layer 1"><g id="OptiNa"><g id="Layer_1-2" data-name="Layer 1"><g id="OptiNa_Outlines" data-name="OptiNa Outlines"><polygon class="cls-2" points="162.2 239.7 143.5 181 145 172.1 112.2 172.1 106.7 155.7 86.3 155.7 83.1 172.1 31.2 172.1 7.8 112.4 17.1 71.3 31.4 71.3 22.5 47 31.4 7.5 83.4 7.5 88.6 23.2 109.3 23.2 112.3 7.5 164.8 7.5 169.9 25.8 173.1 7.5 327.6 7.5 338.9 68.8 320.1 239.7 162.2 239.7"/><path class="cls-2" d="M321.4,15l10,54.1-18,163H167.6l-16.5-51.6,2.7-15.9H117.5L112,148.2H80.2L77,164.6H36.3L15.7,111.8l7.4-33.1H42.2L30.3,46.5,37.4,15H78l5.2,15.7h32.4l3-15.7h40.6l12.6,44.9L179.4,15h142M333.9,0H106.1l-2.4,12.2-.7,3.5H94l-1.8-5.4L88.8,0H25.4L22.8,11.7,15.7,43.1l-1,4.3,1.5,4.1,4.4,12.1H11L8.4,75.4,1,108.5,0,113l1.7,4.3L22.3,170l3.7,9.5H89.2l2.4-12.1.9-4.3h8.8l2.1,6.2,3.4,10.2h29.3l-.3,1.9,1.1,3.5,16.5,51.7,3.4,10.5H326.9l1.5-13.4,18-163,.2-2.2-.4-2.2-10-54.1L333.9,0Z"/><polygon class="cls-2" points="535.3 239.7 531.9 180.6 534.2 107.7 499.6 107.7 495 46.6 496.8 7.5 653.4 7.5 653.7 46.6 653 107.7 613.3 107.7 612.3 239.7 535.3 239.7"/><path class="cls-2" d="M646,15l.2,31.5-.6,53.7H605.9l-1,132H542.4l-3-51.7,2.5-80.3H506.6l-4.1-53.7L504,15H646M660.9,0H489.7L489,14.3l-1.5,31.5v.9l.1.9,4,53.7,1.1,13.8h33.8l-2,64.8v1.4l3,51.7.8,14.1h91.5l.1-14.9.9-117.1h39.6l.2-14.8.7-53.7v-.3L661,14.9,660.9,0Z"/><polygon class="cls-2" points="847.8 239.7 845 205.5 824.4 205.5 824.3 204 819.7 239.7 743.5 239.7 735.9 69 740.5 7.5 815.3 7.5 817.5 39 837.9 39 838 39.5 842.3 7.5 916.4 7.5 935.2 180.8 923.3 239.7 847.8 239.7"/><path class="cls-2" d="M909.7,15l17.9,165.5-10.5,51.7H854.6L852,198H831.4L829,164.6H818.8l1.1,15.9-6.7,51.7H750.7l-7.2-163,4-54.1h60.9l2.2,31.5H831l2.5,32.3h8.8l-.8-9.7,7.3-54.1,60.9-.1M923.2.1H835.8l-1.8,13-2.5,18.5h-7L823.3,14l-1-14H733.5l-1,13.9-4,54.1-.1.9v.9l7.2,163,.6,14.3h90l1.7-13.1,2.8-21.1h7.4l1.7,20.4,1.1,13.8h88.6l2.4-12,10.5-51.7.5-2.3-.2-2.3-18-165.5L923.2.1Z"/><polygon class="cls-2" points="660 239.7 657.5 69.1 659 7.5 734.3 7.5 741 180.6 736.8 239.7 660 239.7"/><path class="cls-2" d="M727.1,15l6.5,165.5-3.8,51.7H667.3l-2.4-163,1.3-54.1,60.9-.1M741.6.1h-90l-.4,14.6-1.3,54.1v.6l2.4,163,.3,14.8h91.2l1-13.9,3.7-51.7.1-.8V180L742.2,14.5,741.6.1Z"/><polygon class="cls-2" points="328.1 239.7 316.2 180.8 335 7.5 490.6 7.5 495.9 69 490.6 172.1 409 172.1 403.6 239.7 328.1 239.7"/><path class="cls-2" d="M483.7,15l4.6,54.1-4.9,95.5H402.1l-5.5,67.6H334.1l-10.5-51.7L341.7,15h142M497.5,0H328.2l-1.5,13.4L308.8,178.9l-.2,2.3.5,2.3,10.5,51.7,2.4,12h88.6l1.1-13.8,4.3-53.8h81.7l.7-14.2,4.9-95.5v-1l-.1-1-4.6-54.1L497.5,0Z"/><polygon class="cls-2" points="1014.8 239.7 1011.8 218.4 1006.2 239.7 931.3 239.7 912.5 68.8 923.8 7.5 1078.3 7.5 1081.4 25.8 1086.6 7.5 1139.1 7.5 1142.1 23.2 1162.8 23.2 1168 7.5 1220 7.5 1228.9 47 1220 71.3 1234.3 71.3 1243.6 112.4 1220.2 172.1 1168.3 172.1 1165 155.7 1144.7 155.7 1139.2 172.1 1106.4 172.1 1107.9 181 1089.2 239.7 1014.8 239.7"/><path class="cls-2" d="M1214,15l7.1,31.5-11.8,32.3h19.1l7.4,33.1-20.7,52.8h-40.7l-3.2-16.4h-31.9l-5.5,16.4h-36.3l2.7,15.9-16.4,51.7h-62.5l-9.4-67.5h-.2l2.2,15.9-13.5,51.7H938l-18-163,10-54.1h142l7.6,44.9,12.7-44.9h40.6l3,15.7h32.4l5.2-15.7L1214,15M1226,.1h-63.4l-3.4,10.3-1.8,5.4h-9.1l-.7-3.5L1145.2,0H917.5l-2.3,12.3-10,54.1-.4,2.2.2,2.2,18,163,1.5,13.4h170.2l3.3-10.5,16.4-51.7,1.1-3.5-.3-1.9h29.3l3.4-10.2,2.1-6.2h8.8l.9,4.3,2.4,12.1h63.2l3.7-9.5,20.7-52.8,1.7-4.3-1-4.5L1243,75.4l-2.6-11.7h-9.6l4.4-12.1,1.5-4.1-1-4.3-7.1-31.5L1226,.1Z"/></g><g id="OptiNa-2" data-name="OptiNa"><polygon class="cls-3" points="57.7 111.8 76.9 164.6 36.3 164.6 15.6 111.8 57.7 111.8"/><polygon class="cls-4" points="141.9 111.8 158.2 164.6 117.6 164.6 99.8 111.8 141.9 111.8"/><polygon class="cls-5" points="159.1 15 153.5 46.5 133 46.5 127 78.8 147.8 78.8 141.9 111.8 99.8 111.8 103 95.2 61.2 95.2 57.7 111.8 15.6 111.8 23.1 78.8 43.8 78.8 50.8 46.5 30.3 46.5 37.4 15 78 15 74.7 30.7 115.5 30.7 118.5 15 159.1 15"/><polygon class="cls-6" points="302.2 180.5 313.4 232.2 167.7 232.2 151.2 180.5 302.2 180.5"/><path class="cls-7" d="M179.4,15h142L302.2,180.5h-151Zm62.9,130.7,13.8-99.2H235.6L221,145.7h21.3"/><polygon class="cls-8" points="388.5 180.5 396.7 232.2 334.2 232.2 323.7 180.5 388.5 180.5"/><path class="cls-9" d="M341.7,15h142l-5.2,96.9H394.4l-5.8,68.6H323.9Zm76.2,63.8,2.5-32.3H399.9l-2.8,32.3h20.8"/><polygon class="cls-10" points="1151.6 111.8 1133.8 164.6 1093.2 164.6 1109.5 111.8 1151.6 111.8"/><polygon class="cls-11" points="1214 15 1221.1 46.5 1200.6 46.5 1207.6 78.8 1228.3 78.8 1235.8 111.8 1193.7 111.8 1190.2 95.2 1148.4 95.2 1151.6 111.8 1109.5 111.8 1103.6 78.8 1124.4 78.8 1118.4 46.5 1097.9 46.5 1092.3 15 1132.9 15 1135.9 30.7 1176.7 30.7 1173.4 15 1214 15"/><polygon class="cls-12" points="1235.8 111.8 1215.1 164.6 1174.4 164.6 1193.7 111.8 1235.8 111.8"/><polygon class="cls-13" points="1013.9 180.5 1000.5 232.2 938 232.2 949.2 180.5 1013.9 180.5"/><polygon class="cls-14" points="1100.2 180.5 1083.7 232.2 1021.3 232.2 1035.5 180.5 1100.2 180.5"/><path class="cls-15" d="M930,15h142l28.2,165.5h-64.7l-10.1-68.6h-21l9.6,68.6H949.3Zm90.5,63.8-4.7-32.3H995.3l4.5,32.3h20.7"/><polygon class="cls-16" points="819.8 180.5 813.1 232.2 750.6 232.2 755.1 180.5 819.8 180.5"/><polygon class="cls-17" points="909.7 15 927.7 180.5 863 180.5 860 145.7 838.7 145.7 836.1 111.8 815 111.8 819.8 180.5 755.1 180.5 747.4 15 808.3 15 810.5 46.5 831 46.5 833.5 78.8 854.3 78.8 848.9 15 909.7 15"/><polygon class="cls-18" points="927.7 180.5 917.2 232.2 854.7 232.2 863 180.5 927.7 180.5"/><polygon class="cls-19" points="733.5 180.5 729.8 232.2 667.3 232.2 668.8 180.5 733.5 180.5"/><polygon class="cls-20" points="727.1 15 733.5 180.5 668.8 180.5 666.3 15 727.1 15"/><polygon class="cls-21" points="604.1 180.5 604.9 232.2 542.4 232.2 539.4 180.5 604.1 180.5"/><polygon class="cls-22" points="646 15 646.2 46.5 605.2 46.5 604.1 180.5 539.4 180.5 543.6 46.5 502.5 46.5 504 15 646 15"/></g></g></g><g id="O_Texture" data-name="O Texture" class="cls-23"><polygon points="304.2 163 302.2 180.5 280.6 180.5 282.8 163 304.2 163"/><polygon points="284.9 145.7 282.8 163 261.4 163 263.6 145.7 284.9 145.7"/><polygon points="217.5 30.7 215.1 46.5 194.6 46.5 197.1 30.7 217.5 30.7"/><polygon points="215.1 46.5 212.6 62.5 192 62.5 194.6 46.5 215.1 46.5"/><polygon points="199.7 15 197.1 30.7 176.7 30.7 179.4 15 199.7 15"/><polygon points="192 62.5 189.3 78.8 168.5 78.8 171.3 62.5 192 62.5"/></g><g id="P_Texture" data-name="P Texture" class="cls-23"><polygon points="390 163 388.5 180.5 366.9 180.5 368.5 163 390 163"/><polygon points="370.1 145.7 368.5 163 347.1 163 348.8 145.7 370.1 145.7"/><polygon points="357.2 62.5 355.6 78.8 334.8 78.8 336.6 62.5 357.2 62.5"/><polygon points="379.4 46.5 377.9 62.5 357.2 62.5 358.9 46.5 379.4 46.5"/><polygon points="380.9 30.6 379.4 46.5 358.9 46.5 360.5 30.6 380.9 30.6"/><polygon points="362.1 15 360.5 30.6 340.1 30.6 341.8 15 362.1 15"/></g><g id="T_Texture" data-name="T Texture" class="cls-23"><polygon points="582.6 162.8 604.2 162.8 604 180.4 582.3 180.3 582.6 162.8"/><polygon points="584 78.4 563.2 78.5 563.5 62.3 584.3 62.2 584 78.4"/><polygon points="583.7 94.9 562.8 94.9 563.2 78.5 584 78.4 583.7 94.9"/><polygon points="561.1 162.7 561.5 145.4 582.9 145.5 582.6 162.8 561.1 162.7"/><polygon points="563.5 62.3 542.9 62.3 543.4 46.3 563.9 46.3 563.5 62.3"/><polygon points="541.3 111.5 541.8 94.9 562.8 94.9 562.3 111.5 541.3 111.5"/></g><g id="I_Texture" data-name="I Texture"><g class="cls-23"><polygon points="707.78 46.59 708.27 62.63 687.61 62.64 687.24 46.6 707.78 46.59"/><polygon points="707.29 30.74 707.78 46.59 687.24 46.6 686.87 30.75 707.29 30.74"/><polygon points="686.5 15.09 686.87 30.75 666.45 30.76 666.2 15.1 686.5 15.09"/></g><polygon class="cls-24" points="747.4 15 909.71 15.09 927.6 180.5 755.1 180.5 747.4 15"/><line class="cls-24" x1="754.29" y1="163.02" x2="925.71" y2="163.03"/><line class="cls-24" x1="753.48" y1="145.76" x2="923.84" y2="145.78"/><line class="cls-24" x1="752.69" y1="128.71" x2="922" y2="128.74"/><line class="cls-24" x1="751.91" y1="111.86" x2="920.18" y2="111.9"/><line class="cls-24" x1="751.13" y1="95.23" x2="918.38" y2="95.28"/><line class="cls-24" x1="750.37" y1="78.79" x2="916.61" y2="78.85"/><line class="cls-24" x1="749.61" y1="62.56" x2="914.85" y2="62.62"/><line class="cls-24" x1="748.87" y1="46.52" x2="913.12" y2="46.59"/><line class="cls-24" x1="748.13" y1="30.66" x2="911.4" y2="30.74"/><line class="cls-24" x1="889.43" y1="15.08" x2="906.05" y2="180.5"/><line class="cls-24" x1="869.15" y1="15.07" x2="884.49" y2="180.5"/><line class="cls-24" x1="848.86" y1="15.06" x2="862.94" y2="180.5"/><line class="cls-24" x1="828.58" y1="15.04" x2="841.37" y2="180.5"/><line class="cls-24" x1="808.29" y1="15.03" x2="819.81" y2="180.5"/><line class="cls-24" x1="787.99" y1="15.02" x2="798.24" y2="180.5"/><line class="cls-24" x1="767.7" y1="15.01" x2="776.67" y2="180.5"/></g><g id="N_Texture" data-name="N Texture"><g class="cls-23"><polygon points="914.85 62.61 916.6 78.83 895.83 78.83 894.2 62.61 914.85 62.61"/><polygon points="892.59 46.58 894.2 62.61 873.56 62.61 872.08 46.58 892.59 46.58"/><polygon points="891 30.75 892.59 46.58 872.08 46.58 870.61 30.75 891 30.75"/><polygon points="909.71 15.1 911.4 30.75 891 30.75 889.43 15.1 909.71 15.1"/><polygon points="789.01 30.75 789.99 46.58 769.47 46.58 768.62 30.75 789.01 30.75"/><polygon points="808.33 15.1 809.41 30.75 789.01 30.75 788.05 15.1 808.33 15.1"/><polygon points="775.72 163.02 776.66 180.5 755.1 180.5 754.3 163.02 775.72 163.02"/></g></g><g id="A_Texture" data-name="A Texture"><g class="cls-23"><polygon points="1072 15 1074.67 30.68 1054.25 30.68 1051.7 15 1072 15"/><polygon points="1054.25 30.68 1056.83 46.54 1036.3 46.53 1033.84 30.68 1054.25 30.68"/><polygon points="960.25 95.25 962.32 111.89 941.3 111.88 939.36 95.24 960.25 95.25"/><polygon points="976.83 62.58 978.97 78.82 958.21 78.81 956.19 62.57 976.83 62.58"/><polygon points="978.97 78.82 981.14 95.25 960.25 95.25 958.21 78.81 978.97 78.82"/><polygon points="954.2 46.52 956.19 62.57 935.55 62.57 933.68 46.52 954.2 46.52"/></g></g><g id="Left_Ter" data-name="Left Ter" class="cls-23"><polygon points="159.1 15 156.32 30.64 135.92 30.64 138.82 15 159.1 15"/><polygon points="91.91 46.47 88.68 62.5 68.02 62.5 71.38 46.47 91.91 46.47"/><polygon points="88.68 62.5 85.41 78.73 64.62 78.73 68.02 62.5 88.68 62.5"/><polygon points="106.2 78.73 103.02 95.16 82.1 95.16 85.41 78.73 106.2 78.73"/><polygon points="40.27 95.16 36.65 111.8 15.6 111.8 19.35 95.16 40.27 95.16"/></g><g id="Right_Ter" data-name="Right Ter" class="cls-23"><polygon points="1214 15 1217.52 30.64 1197.12 30.64 1193.72 15 1214 15"/><polygon points="1159.49 46.47 1162.72 62.5 1142.06 62.5 1138.96 46.47 1159.49 46.47"/><polygon points="1162.72 62.5 1165.99 78.73 1145.2 78.73 1142.06 62.5 1162.72 62.5"/><polygon points="1190.22 95.16 1169.3 95.16 1165.99 78.73 1186.78 78.73 1190.22 95.16"/><polygon points="1127.46 95.16 1130.55 111.8 1109.5 111.8 1106.54 95.16 1127.46 95.16"/></g></g></g></svg>