<svg xmlns="http://www.w3.org/2000/svg" xmlns:xlink="http://www.w3.org/1999/xlink" width="1251.39" height="247.16" viewBox="0 0 1251.39 247.16"><defs><style>.cls-1{isolation:isolate;}.cls-2{fill:url(#OptiNa_Borders);}.cls-3{fill:url(#OptiNa_Borders-2);}.cls-4{fill:url(#OptiNa_Borders-3);}.cls-5{fill:url(#OptiNa_Borders-4);}.cls-6{fill:url(#OptiNa_Borders-5);}.cls-7{fill:url(#OptiNa_Borders-6);}.cls-8{fill:url(#OptiNa_Borders-7);}.cls-9{fill:url(#OptiNa_Borders-8);}.cls-10{fill:url(#OptiNa_Borders-9);}.cls-11{fill:url(#OptiNa_Borders-10);}.cls-12{fill:url(#OptiNa_Borders-11);}.cls-13{fill:url(#OptiNa_Borders-12);}.cls-14{fill:url(#linear-gradient);}.cls-15{fill:url(#linear-gradient-2);}.cls-16{fill:url(#linear-gradient-3);}.cls-17{fill:url(#linear-gradient-4);}.cls-18{fill:url(#linear-gradient-5);}.cls-19{fill:url(#linear-gradient-6);}.cls-20{fill:url(#linear-gradient-7);}.cls-21{fill:url(#linear-gradient-8);}.cls-22{fill:url(#linear-gradient-9);}.cls-23{fill:url(#linear-gradient-10);}.cls-24{fill:url(#linear-gradient-11);}.cls-25{fill:url(#linear-gradient-12);}.cls-26{fill:url(#linear-gradient-13);}.cls-27{fill:url(#linear-gradient-14);}.cls-28{fill:url(#linear-gradient-15);}.cls-29{fill:url(#linear-gradient-16);}.cls-30{fill:url(#linear-gradient-17);}.cls-31{fill:url(#linear-gradient-18);}.cls-32{fill:url(#linear-gradient-19);}.cls-33{fill:#960000;}.cls-34{fill:url(#linear-gradient-20);}</style><linearGradient id="OptiNa_Borders" x1="835.55" y1="232.16" x2="835.55" y2="15" gradientUnits="userSpaceOnUse"><stop offset="0" stop-color="#2a0001"/><stop offset="1" stop-color="#450000"/></linearGradient><linearGradient id="OptiNa_Borders-2" x1="1076.02" y1="638.98" x2="1076.02" y2="391.82" xlink:href="#OptiNa_Borders"/><linearGradient id="OptiNa_Borders-3" x1="1077.9" y1="232.16" x2="1077.9" y2="15" xlink:href="#OptiNa_Borders"/><linearGradient id="OptiNa_Borders-4" x1="1318.55" y1="638.98" x2="1318.55" y2="391.82" xlink:href="#OptiNa_Borders"/><linearGradient id="OptiNa_Borders-5" x1="406.04" y1="232.16" x2="406.04" y2="15" xlink:href="#OptiNa_Borders"/><linearGradient id="OptiNa_Borders-6" x1="646.38" y1="638.98" x2="646.38" y2="391.82" xlink:href="#OptiNa_Borders"/><linearGradient id="OptiNa_Borders-7" x1="574.37" y1="232.16" x2="574.37" y2="15" xlink:href="#OptiNa_Borders"/><linearGradient id="OptiNa_Borders-8" x1="814.76" y1="638.98" x2="814.76" y2="391.82" xlink:href="#OptiNa_Borders"/><linearGradient id="OptiNa_Borders-9" x1="699.25" y1="232.16" x2="699.25" y2="15" xlink:href="#OptiNa_Borders"/><linearGradient id="OptiNa_Borders-10" x1="939.66" y1="638.98" x2="939.66" y2="391.82" xlink:href="#OptiNa_Borders"/><linearGradient id="OptiNa_Borders-11" x1="173.49" y1="232.16" x2="173.49" y2="15" xlink:href="#OptiNa_Borders"/><linearGradient id="OptiNa_Borders-12" x1="413.65" y1="638.98" x2="413.65" y2="391.82" xlink:href="#OptiNa_Borders"/><linearGradient id="linear-gradient" x1="46.29" y1="164.62" x2="46.29" y2="111.85" gradientUnits="userSpaceOnUse"><stop offset="0" stop-color="#270000"/><stop offset="1" stop-color="#8e0000"/></linearGradient><linearGradient id="linear-gradient-2" x1="129.01" y1="164.62" x2="129.01" y2="111.85" xlink:href="#linear-gradient"/><linearGradient id="linear-gradient-3" x1="87.37" y1="111.85" x2="87.37" y2="15" gradientUnits="userSpaceOnUse"><stop offset="0" stop-color="#b10003"/><stop offset="1" stop-color="#ed0000"/></linearGradient><linearGradient id="linear-gradient-4" x1="232.3" y1="232.16" x2="232.3" y2="180.48" xlink:href="#linear-gradient"/><linearGradient id="linear-gradient-5" x1="476.71" y1="572.3" x2="476.71" y2="406.82" xlink:href="#linear-gradient-3"/><linearGradient id="linear-gradient-6" x1="360.21" y1="232.16" x2="360.21" y2="180.48" xlink:href="#linear-gradient"/><linearGradient id="linear-gradient-7" x1="644.13" y1="572.3" x2="644.13" y2="406.82" xlink:href="#linear-gradient-3"/><linearGradient id="linear-gradient-8" x1="1122.38" y1="164.62" x2="1122.38" y2="111.85" xlink:href="#linear-gradient"/><linearGradient id="linear-gradient-9" x1="1164.02" y1="111.85" x2="1164.02" y2="15" xlink:href="#linear-gradient-3"/><linearGradient id="linear-gradient-10" x1="1205.1" y1="164.62" x2="1205.1" y2="111.85" xlink:href="#linear-gradient"/><linearGradient id="linear-gradient-11" x1="975.95" y1="232.16" x2="975.95" y2="180.48" xlink:href="#linear-gradient"/><linearGradient id="linear-gradient-12" x1="1060.73" y1="232.16" x2="1060.73" y2="180.48" xlink:href="#linear-gradient"/><linearGradient id="linear-gradient-13" x1="1255.5" y1="572.3" x2="1255.5" y2="406.82" xlink:href="#linear-gradient-3"/><linearGradient id="linear-gradient-14" x1="785.21" y1="232.16" x2="785.21" y2="180.48" xlink:href="#linear-gradient"/><linearGradient id="linear-gradient-15" x1="837.54" y1="180.48" x2="837.54" y2="15" xlink:href="#linear-gradient-3"/><linearGradient id="linear-gradient-16" x1="891.19" y1="232.16" x2="891.19" y2="180.48" xlink:href="#linear-gradient"/><linearGradient id="linear-gradient-17" x1="700.44" y1="232.16" x2="700.44" y2="180.48" xlink:href="#linear-gradient"/><linearGradient id="linear-gradient-18" x1="699.91" y1="180.48" x2="699.91" y2="15" xlink:href="#linear-gradient-3"/><linearGradient id="linear-gradient-19" x1="572.15" y1="232.16" x2="572.15" y2="180.48" xlink:href="#linear-gradient"/><linearGradient id="linear-gradient-20" x1="574.37" y1="180.48" x2="574.37" y2="15" xlink:href="#linear-gradient-3"/></defs><g id="OptiNa_Outlines" data-name="OptiNa Outlines"><g class="cls-1"><polygon class="cls-2" points="909.71 15 927.65 180.48 917.18 232.16 854.72 232.16 851.96 197.98 831.39 197.98 828.94 164.62 818.71 164.62 819.81 180.48 813.08 232.16 750.62 232.16 743.44 69.12 747.42 15 808.28 15 810.47 46.5 831 46.5 833.5 78.78 842.34 78.78 841.56 69.12 848.85 15 909.71 15"/><path class="cls-3" d="M1150.12,406.82l17.94,165.48L1157.59,624h-62.46l-2.76-34.18H1071.8l-2.45-33.36h-10.23l1.1,15.86L1053.49,624H991l-7.18-163,4-54.12h60.86l2.19,31.5h20.53l2.5,32.28h8.84l-.78-9.66,7.29-54.12h60.86m13.46-15h-87.43l-1.76,13-2.49,18.5h-7l-1.22-17.54-1-14H973.89l-1,13.9-4,54.12-.06.88,0,.88,7.18,163,.64,14.34h90l1.7-13.06,2.75-21.12h7.42l1.65,20.39,1.11,13.79h88.57l2.43-12,10.47-51.68.46-2.28-.25-2.32L1165,405.2l-1.45-13.38Z" transform="translate(-240.41 -391.82)"/><polygon class="cls-4" points="1235.75 111.85 1215.1 164.62 1174.45 164.62 1171.2 148.23 1139.34 148.23 1133.81 164.62 1097.49 164.62 1100.19 180.48 1083.74 232.16 1021.28 232.16 1011.86 164.62 1011.7 164.62 1013.91 180.48 1000.45 232.16 937.99 232.16 920.04 69.12 929.99 15 1072 15 1079.64 59.88 1092.29 15 1132.86 15 1135.89 30.66 1168.25 30.66 1173.43 15 1214.01 15 1221.08 46.5 1209.25 78.78 1228.33 78.78 1235.75 111.85"/><path class="cls-5" d="M1454.42,406.82l7.07,31.5-11.83,32.28h19.08l7.42,33.07-20.65,52.77h-40.65l-3.25-16.39h-31.86l-5.53,16.39H1337.9l2.7,15.86L1324.15,624h-62.46l-9.42-67.54h-.16l2.21,15.86L1240.86,624H1178.4l-18-163,10-54.12h142l7.64,44.88,12.65-44.88h40.57l3,15.66h32.36l5.18-15.66h40.58m12-15H1403l-3.4,10.29-1.78,5.37h-9.14L1388,404l-2.35-12.15H1157.91l-2.26,12.29-10,54.12-.4,2.16.24,2.19,18,163L1165,639h170.16l3.32-10.45,16.45-51.68,1.11-3.47-.33-1.94H1385l3.44-10.2,2.09-6.19h8.77l.86,4.31,2.39,12.08h63.21l3.73-9.53,20.65-52.77,1.67-4.28-1-4.47-7.42-33.07-2.63-11.72h-9.62l4.44-12.12,1.52-4.14-1-4.3-7.07-31.5-2.63-11.72Z" transform="translate(-240.41 -391.82)"/><polygon class="cls-6" points="483.69 15 488.33 69.12 483.43 164.62 402.12 164.62 396.67 232.16 334.21 232.16 323.74 180.48 341.68 15 483.69 15"/><path class="cls-7" d="M724.1,406.82l4.64,54.12-4.9,95.5H642.53L637.08,624H574.62L564.15,572.3l17.94-165.48h142m13.77-15H568.63l-1.45,13.38L549.24,570.68,549,573l.46,2.28L559.92,627l2.43,12h88.57L652,625.19l4.34-53.75h81.72l.73-14.23,4.9-95.5,0-1-.08-1-4.64-54.12-1.18-13.72Z" transform="translate(-240.41 -391.82)"/><polygon class="cls-8" points="645.98 15 646.22 46.5 645.55 100.21 605.85 100.21 604.88 232.16 542.42 232.16 539.43 180.48 541.92 100.21 506.58 100.21 502.51 46.5 503.98 15 645.98 15"/><path class="cls-9" d="M886.39,406.82l.24,31.5L886,492h-39.7l-1,132H782.83l-3-51.68L782.33,492H747l-4.07-53.71,1.47-31.5h142m14.89-15H730.07l-.66,14.3-1.47,31.5-.05.92.07.91L732,493.16,733.08,507h33.78l-2,64.8,0,.67,0,.67,3,51.68.81,14.13h91.51l.11-14.89L861.15,507h39.62l.19-14.81.67-53.71v-.3l-.24-31.5-.11-14.89Z" transform="translate(-240.41 -391.82)"/><polygon class="cls-10" points="727.13 15 733.54 180.48 729.8 232.16 667.34 232.16 664.95 69.12 666.27 15 727.13 15"/><path class="cls-11" d="M967.54,406.82,974,572.3,970.21,624H907.75l-2.39-163,1.32-54.12h60.86m14.43-15H892l-.36,14.63-1.32,54.12v.59l2.39,163L893,639h91.19l1-13.92,3.74-51.68.06-.83,0-.83-6.41-165.48L982,391.82Z" transform="translate(-240.41 -391.82)"/><polygon class="cls-12" points="331.34 69.12 313.39 232.16 167.65 232.16 151.2 180.48 153.9 164.62 117.59 164.62 112.06 148.23 80.19 148.23 76.94 164.62 36.29 164.62 15.64 111.85 23.07 78.78 42.14 78.78 30.31 46.5 37.38 15 77.96 15 83.14 30.66 115.5 30.66 118.53 15 159.11 15 171.75 59.87 179.39 15 321.39 15 331.34 69.12"/><path class="cls-13" d="M561.8,406.82l10,54.12-18,163H408.06L391.61,572.3l2.7-15.86H358l-5.53-16.39H320.6l-3.25,16.39H276.7l-20.65-52.77,7.43-33.07h19.07l-11.83-32.28,7.07-31.5h40.58l5.18,15.66h32.36l3-15.66h40.58l12.64,44.87,7.64-44.87h142m12.49-15H346.56L344.21,404l-.68,3.51h-9.14l-1.78-5.37-3.4-10.29H265.78l-2.63,11.72L256.08,435l-1,4.3,1.52,4.14,4.44,12.12h-9.6l-2.64,11.71-7.43,33.07-1,4.48,1.67,4.28,20.65,52.77,3.73,9.53h63.21l2.39-12.08.86-4.31h8.78l2.09,6.19,3.44,10.2h29.31l-.33,1.94,1.11,3.47,16.45,51.68L397.09,639H567.24l1.47-13.36,17.95-163,.24-2.19-.4-2.16-10-54.12-2.26-12.29Z" transform="translate(-240.41 -391.82)"/></g></g><g id="OptiNa"><g class="cls-1"><polygon class="cls-14" points="57.72 111.85 76.94 164.62 36.29 164.62 15.64 111.85 57.72 111.85"/><polygon class="cls-15" points="141.86 111.85 158.24 164.62 117.59 164.62 99.78 111.85 141.86 111.85"/><polygon class="cls-16" points="159.11 15.01 153.5 46.51 132.97 46.51 126.97 78.78 147.75 78.78 141.86 111.85 99.78 111.85 103.01 95.21 61.2 95.21 57.72 111.85 15.64 111.85 23.07 78.78 43.84 78.78 50.84 46.51 30.31 46.51 37.39 15.01 77.96 15.01 74.69 30.66 115.5 30.66 118.53 15.01 159.11 15.01"/></g><g class="cls-1"><polygon class="cls-17" points="302.18 180.48 313.39 232.16 167.66 232.16 151.2 180.48 302.18 180.48"/><path class="cls-18" d="M419.8,406.82h142L542.59,572.3h-151Zm62.92,130.73,13.83-99.23H476l-14.6,99.23h21.29" transform="translate(-240.41 -391.82)"/></g><g class="cls-1"><polygon class="cls-19" points="388.45 180.48 396.67 232.16 334.21 232.16 323.74 180.48 388.45 180.48"/><path class="cls-20" d="M582.09,406.82h142l-5.25,96.85H634.7l-5.85,68.63h-64.7ZM658.3,470.6l2.5-32.28H640.27l-2.75,32.28H658.3" transform="translate(-240.41 -391.82)"/></g><g class="cls-1"><polygon class="cls-21" points="1151.61 111.85 1133.81 164.62 1093.16 164.62 1109.53 111.85 1151.61 111.85"/><polygon class="cls-22" points="1214.01 15.01 1221.08 46.51 1200.55 46.51 1207.55 78.78 1228.33 78.78 1235.75 111.85 1193.68 111.85 1190.2 95.21 1148.39 95.21 1151.61 111.85 1109.53 111.85 1103.64 78.78 1124.42 78.78 1118.43 46.51 1097.9 46.51 1092.29 15.01 1132.87 15.01 1135.89 30.66 1176.71 30.66 1173.43 15.01 1214.01 15.01"/><polygon class="cls-23" points="1235.75 111.85 1215.1 164.62 1174.45 164.62 1193.68 111.85 1235.75 111.85"/></g><g class="cls-1"><polygon class="cls-24" points="1013.91 180.48 1000.45 232.16 937.99 232.16 949.21 180.48 1013.91 180.48"/><polygon class="cls-25" points="1100.19 180.48 1083.74 232.16 1021.28 232.16 1035.49 180.48 1100.19 180.48"/><path class="cls-26" d="M1170.4,406.82h142L1340.6,572.3h-64.7l-10.1-68.63h-21l9.56,68.63h-64.7Zm90.53,63.78-4.74-32.28h-20.54l4.5,32.28h20.78" transform="translate(-240.41 -391.82)"/></g><g class="cls-1"><polygon class="cls-27" points="819.81 180.48 813.08 232.16 750.62 232.16 755.11 180.48 819.81 180.48"/><polygon class="cls-28" points="909.72 15.01 927.65 180.48 862.95 180.48 859.99 145.73 838.68 145.73 836.06 111.85 815.03 111.85 819.81 180.48 755.11 180.48 747.42 15.01 808.28 15.01 810.47 46.51 831 46.51 833.5 78.78 854.29 78.78 848.86 15.01 909.72 15.01"/><polygon class="cls-29" points="927.65 180.48 917.18 232.16 854.72 232.16 862.95 180.48 927.65 180.48"/></g><g class="cls-1"><polygon class="cls-30" points="733.54 180.48 729.8 232.16 667.34 232.16 668.84 180.48 733.54 180.48"/><polygon class="cls-31" points="727.13 15.01 733.54 180.48 668.84 180.48 666.27 15.01 727.13 15.01"/></g><g class="cls-1"><polygon class="cls-32" points="604.13 180.48 604.88 232.16 542.42 232.16 539.43 180.48 604.13 180.48"/><polygon class="cls-33" points="605.17 46.51 605.85 100.21 604.88 232.16 604.13 180.48 605.17 46.51"/><polygon class="cls-34" points="645.98 15.01 646.23 46.51 605.17 46.51 604.13 180.48 539.43 180.48 543.58 46.51 502.51 46.51 503.98 15.01 645.98 15.01"/></g></g></svg>