<?xml version="1.0" encoding="utf-8"?>
<!-- Generator: Adobe Illustrator 25.4.1, SVG Export Plug-In . SVG Version: 6.00 Build 0)  -->
<svg version="1.1" id="Layer_1" xmlns="http://www.w3.org/2000/svg" xmlns:xlink="http://www.w3.org/1999/xlink" x="0px" y="0px"
	 viewBox="0 0 1251.4 247.2" style="enable-background:new 0 0 1251.4 247.2;" xml:space="preserve">
<style type="text/css">
	.st0{fill:#270000;}
	.st1{fill:url(#SVGID_1_);}
	.st2{fill:url(#SVGID_00000018928488827929243230000005244498584126884523_);}
	.st3{fill:url(#SVGID_00000041266091809251078770000016375297489069024918_);}
	.st4{fill:url(#SVGID_00000136388046494576672110000013414799500107000742_);}
	.st5{fill:url(#SVGID_00000153669328949377278670000008505220253596795542_);}
	.st6{fill:url(#SVGID_00000045610987593421785030000002802650781593402812_);}
	.st7{fill:url(#SVGID_00000165213277744215647540000006104306633839793536_);}
	.st8{fill:url(#SVGID_00000169529865908907821350000009072999447327787141_);}
	.st9{fill:url(#SVGID_00000086657796637743728560000008266287082184351658_);}
	.st10{fill:url(#SVGID_00000156565917595105547600000010509926197913065870_);}
	.st11{fill:url(#SVGID_00000037691385992068257810000000158200991109285807_);}
	.st12{fill:url(#SVGID_00000174598311528820323410000009106710826285218725_);}
	.st13{fill:url(#SVGID_00000093176442774385963100000008589090059006871484_);}
	.st14{fill:url(#SVGID_00000029767107608840395460000006370741216298597023_);}
	.st15{fill:url(#SVGID_00000148661922992881341490000000316063774313007292_);}
	.st16{fill:url(#SVGID_00000121271978251514243290000017973355981900343185_);}
	.st17{fill:url(#SVGID_00000156577121663205000670000014385900949314483625_);}
	.st18{fill:url(#SVGID_00000026144572694308891390000007261675362677824386_);}
	.st19{fill:url(#SVGID_00000080927934288316286580000011783963360151941806_);}
	.st20{fill:url(#SVGID_00000032650783084210866260000005670240576085350834_);}
</style>
<g id="Layer_1_00000016052017579924397270000016775437385908326557_">
	<g id="OptiNa_Outlines">
		<g>
			<polygon class="st0" points="162.2,239.7 143.5,181 145,172.1 112.2,172.1 106.7,155.7 86.3,155.7 83.1,172.1 31.2,172.1 
				7.8,112.4 17.1,71.3 31.4,71.3 22.5,47 31.4,7.5 83.4,7.5 88.6,23.2 109.3,23.2 112.3,7.5 164.8,7.5 169.9,25.8 173.1,7.5 
				327.6,7.5 338.9,68.8 320.1,239.7 			"/>
			<path class="st0" d="M321.4,15l10,54.1l-18,163H167.6l-16.5-51.6l2.7-15.9h-36.3l-5.5-16.4H80.2L77,164.6H36.3l-20.6-52.8
				l7.4-33.1h19.1L30.3,46.5L37.4,15H78l5.2,15.7h32.4l3-15.7h40.6l12.6,44.9l7.6-44.9H321.4 M333.9,0H106.1l-2.4,12.2l-0.7,3.5h-9
				l-1.8-5.4L88.8,0H25.4l-2.6,11.7l-7.1,31.4l-1,4.3l1.5,4.1l4.4,12.1H11L8.4,75.4L1,108.5L0,113l1.7,4.3L22.3,170l3.7,9.5h63.2
				l2.4-12.1l0.9-4.3h8.8l2.1,6.2l3.4,10.2h29.3l-0.3,1.9l1.1,3.5l16.5,51.7l3.4,10.5h170.1l1.5-13.4l18-163l0.2-2.2l-0.4-2.2
				l-10-54.1L333.9,0L333.9,0z"/>
			<polygon class="st0" points="535.3,239.7 531.9,180.6 534.2,107.7 499.6,107.7 495,46.6 496.8,7.5 653.4,7.5 653.7,46.6 
				653,107.7 613.3,107.7 612.3,239.7 			"/>
			<path class="st0" d="M646,15l0.2,31.5l-0.6,53.7h-39.7l-1,132h-62.5l-3-51.7l2.5-80.3h-35.3l-4.1-53.7L504,15H646 M660.9,0H489.7
				L489,14.3l-1.5,31.5v0.9l0.1,0.9l4,53.7l1.1,13.8h33.8l-2,64.8v0.7v0.7l3,51.7l0.8,14.1h91.5l0.1-14.9l0.9-117.1h39.6l0.2-14.8
				l0.7-53.7v-0.3L661,14.9L660.9,0L660.9,0z"/>
			<polygon class="st0" points="847.8,239.7 845,205.5 824.4,205.5 824.3,204 819.7,239.7 743.5,239.7 735.9,69 740.5,7.5 
				815.3,7.5 817.5,39 837.9,39 838,39.5 842.3,7.5 916.4,7.5 935.2,180.8 923.3,239.7 			"/>
			<path class="st0" d="M909.7,15l17.9,165.5l-10.5,51.7h-62.5L852,198h-20.6l-2.4-33.4h-10.2l1.1,15.9l-6.7,51.7h-62.5l-7.2-163
				l4-54.1h60.9l2.2,31.5H831l2.5,32.3h8.8l-0.8-9.7l7.3-54.1L909.7,15 M923.2,0.1h-87.4l-1.8,13l-2.5,18.5h-7L823.3,14l-1-14h-88.8
				l-1,13.9l-4,54.1l-0.1,0.9v0.9l7.2,163l0.6,14.3h90l1.7-13.1l2.8-21.1h7.4l1.7,20.4l1.1,13.8h88.6l2.4-12l10.5-51.7l0.5-2.3
				l-0.2-2.3l-18-165.5L923.2,0.1L923.2,0.1z"/>
			<polygon class="st0" points="660,239.7 657.5,69.1 659,7.5 734.3,7.5 741,180.6 736.8,239.7 			"/>
			<path class="st0" d="M727.1,15l6.5,165.5l-3.8,51.7h-62.5l-2.4-163l1.3-54.1L727.1,15 M741.6,0.1h-90l-0.4,14.6l-1.3,54.1v0.6
				l2.4,163l0.3,14.8h91.2l1-13.9l3.7-51.7l0.1-0.8V180l-6.4-165.5L741.6,0.1L741.6,0.1z"/>
			<polygon class="st0" points="328.1,239.7 316.2,180.8 335,7.5 490.6,7.5 495.9,69 490.6,172.1 409,172.1 403.6,239.7 			"/>
			<path class="st0" d="M483.7,15l4.6,54.1l-4.9,95.5h-81.3l-5.5,67.6h-62.5l-10.5-51.7L341.7,15H483.7 M497.5,0H328.2l-1.5,13.4
				l-17.9,165.5l-0.2,2.3l0.5,2.3l10.5,51.7l2.4,12h88.6l1.1-13.8l4.3-53.8h81.7l0.7-14.2l4.9-95.5v-1l-0.1-1l-4.6-54.1L497.5,0
				L497.5,0z"/>
			<polygon class="st0" points="1014.8,239.7 1011.8,218.4 1006.2,239.7 931.3,239.7 912.5,68.8 923.8,7.5 1078.3,7.5 1081.4,25.8 
				1086.6,7.5 1139.1,7.5 1142.1,23.2 1162.8,23.2 1168,7.5 1220,7.5 1228.9,47 1220,71.3 1234.3,71.3 1243.6,112.4 1220.2,172.1 
				1168.3,172.1 1165,155.7 1144.7,155.7 1139.2,172.1 1106.4,172.1 1107.9,181 1089.2,239.7 			"/>
			<path class="st0" d="M1214,15l7.1,31.5l-11.8,32.3h19.1l7.4,33.1l-20.7,52.8h-40.7l-3.2-16.4h-31.9l-5.5,16.4h-36.3l2.7,15.9
				l-16.4,51.7h-62.5l-9.4-67.5h-0.2l2.2,15.9l-13.5,51.7H938l-18-163l10-54.1h142l7.6,44.9l12.7-44.9h40.6l3,15.7h32.4l5.2-15.7
				L1214,15 M1226,0.1h-63.4l-3.4,10.3l-1.8,5.4h-9.1l-0.7-3.5L1145.2,0H917.5l-2.3,12.3l-10,54.1l-0.4,2.2l0.2,2.2l18,163l1.5,13.4
				h170.2l3.3-10.5l16.4-51.7l1.1-3.5l-0.3-1.9h29.3l3.4-10.2l2.1-6.2h8.8l0.9,4.3l2.4,12.1h63.2l3.7-9.5l20.7-52.8l1.7-4.3l-1-4.5
				l-7.4-33.1l-2.6-11.7h-9.6l4.4-12.1l1.5-4.1l-1-4.3l-7.1-31.5L1226,0.1L1226,0.1z"/>
		</g>
	</g>
	<g id="OptiNa">
		<g>
			
				<linearGradient id="SVGID_1_" gradientUnits="userSpaceOnUse" x1="46.25" y1="994.6" x2="46.25" y2="941.8" gradientTransform="matrix(1 0 0 1 0 -830)">
				<stop  offset="0" style="stop-color:#270000"/>
				<stop  offset="1" style="stop-color:#8E0000"/>
			</linearGradient>
			<polygon class="st1" points="57.7,111.8 76.9,164.6 36.3,164.6 15.6,111.8 			"/>
			
				<linearGradient id="SVGID_00000041990828524163015890000007444730531548055221_" gradientUnits="userSpaceOnUse" x1="129" y1="994.6" x2="129" y2="941.8" gradientTransform="matrix(1 0 0 1 0 -830)">
				<stop  offset="0" style="stop-color:#270000"/>
				<stop  offset="1" style="stop-color:#8E0000"/>
			</linearGradient>
			<polygon style="fill:url(#SVGID_00000041990828524163015890000007444730531548055221_);" points="141.9,111.8 158.2,164.6 
				117.6,164.6 99.8,111.8 			"/>
			
				<linearGradient id="SVGID_00000081632456088394190930000001922701718537873831_" gradientUnits="userSpaceOnUse" x1="87.35" y1="941.8" x2="87.35" y2="845" gradientTransform="matrix(1 0 0 1 0 -830)">
				<stop  offset="0" style="stop-color:#B10003"/>
				<stop  offset="1" style="stop-color:#FF342A"/>
			</linearGradient>
			<polygon style="fill:url(#SVGID_00000081632456088394190930000001922701718537873831_);" points="159.1,15 153.5,46.5 133,46.5 
				127,78.8 147.8,78.8 141.9,111.8 99.8,111.8 103,95.2 61.2,95.2 57.7,111.8 15.6,111.8 23.1,78.8 43.8,78.8 50.8,46.5 30.3,46.5 
				37.4,15 78,15 74.7,30.7 115.5,30.7 118.5,15 			"/>
		</g>
		<g>
			
				<linearGradient id="SVGID_00000018221538399570279910000004085935503313158805_" gradientUnits="userSpaceOnUse" x1="232.3" y1="1062.2" x2="232.3" y2="1010.5" gradientTransform="matrix(1 0 0 1 0 -830)">
				<stop  offset="0" style="stop-color:#270000"/>
				<stop  offset="1" style="stop-color:#8E0000"/>
			</linearGradient>
			<polygon style="fill:url(#SVGID_00000018221538399570279910000004085935503313158805_);" points="302.2,180.5 313.4,232.2 
				167.7,232.2 151.2,180.5 			"/>
			
				<linearGradient id="SVGID_00000020400027356297906780000007782475150597454218_" gradientUnits="userSpaceOnUse" x1="476.71" y1="1402.3201" x2="476.71" y2="1236.8201" gradientTransform="matrix(1 0 0 1 -240.41 -1221.8201)">
				<stop  offset="0" style="stop-color:#B10003"/>
				<stop  offset="1" style="stop-color:#FF342A"/>
			</linearGradient>
			<path style="fill:url(#SVGID_00000020400027356297906780000007782475150597454218_);" d="M179.4,15h142l-19.2,165.5h-151
				L179.4,15z M242.3,145.7l13.8-99.2h-20.5L221,145.7H242.3"/>
		</g>
		<g>
			
				<linearGradient id="SVGID_00000160895235883753966500000006613503560042276496_" gradientUnits="userSpaceOnUse" x1="360.2" y1="1062.2" x2="360.2" y2="1010.5" gradientTransform="matrix(1 0 0 1 0 -830)">
				<stop  offset="0" style="stop-color:#270000"/>
				<stop  offset="1" style="stop-color:#8E0000"/>
			</linearGradient>
			<polygon style="fill:url(#SVGID_00000160895235883753966500000006613503560042276496_);" points="388.5,180.5 396.7,232.2 
				334.2,232.2 323.7,180.5 			"/>
			
				<linearGradient id="SVGID_00000070824219183614768510000003446446518760185759_" gradientUnits="userSpaceOnUse" x1="644.21" y1="1402.3201" x2="644.21" y2="1236.8201" gradientTransform="matrix(1 0 0 1 -240.41 -1221.8201)">
				<stop  offset="0" style="stop-color:#B10003"/>
				<stop  offset="1" style="stop-color:#FF342A"/>
			</linearGradient>
			<path style="fill:url(#SVGID_00000070824219183614768510000003446446518760185759_);" d="M341.7,15h142l-5.2,96.9h-84.1
				l-5.8,68.6h-64.7L341.7,15z M417.9,78.8l2.5-32.3h-20.5l-2.8,32.3H417.9"/>
		</g>
		<g>
			
				<linearGradient id="SVGID_00000112604523082980791730000018089289816171358383_" gradientUnits="userSpaceOnUse" x1="1122.3999" y1="994.6" x2="1122.3999" y2="941.8" gradientTransform="matrix(1 0 0 1 0 -830)">
				<stop  offset="0" style="stop-color:#270000"/>
				<stop  offset="1" style="stop-color:#8E0000"/>
			</linearGradient>
			<polygon style="fill:url(#SVGID_00000112604523082980791730000018089289816171358383_);" points="1151.6,111.8 1133.8,164.6 
				1093.2,164.6 1109.5,111.8 			"/>
			
				<linearGradient id="SVGID_00000002375459992462037830000018226519208642921885_" gradientUnits="userSpaceOnUse" x1="1164.05" y1="941.8" x2="1164.05" y2="845" gradientTransform="matrix(1 0 0 1 0 -830)">
				<stop  offset="0" style="stop-color:#B10003"/>
				<stop  offset="1" style="stop-color:#FF342A"/>
			</linearGradient>
			<polygon style="fill:url(#SVGID_00000002375459992462037830000018226519208642921885_);" points="1214,15 1221.1,46.5 
				1200.6,46.5 1207.6,78.8 1228.3,78.8 1235.8,111.8 1193.7,111.8 1190.2,95.2 1148.4,95.2 1151.6,111.8 1109.5,111.8 1103.6,78.8 
				1124.4,78.8 1118.4,46.5 1097.9,46.5 1092.3,15 1132.9,15 1135.9,30.7 1176.7,30.7 1173.4,15 			"/>
			
				<linearGradient id="SVGID_00000125560784039907499670000000581999830311134370_" gradientUnits="userSpaceOnUse" x1="1205.1001" y1="994.6" x2="1205.1001" y2="941.8" gradientTransform="matrix(1 0 0 1 0 -830)">
				<stop  offset="0" style="stop-color:#270000"/>
				<stop  offset="1" style="stop-color:#8E0000"/>
			</linearGradient>
			<polygon style="fill:url(#SVGID_00000125560784039907499670000000581999830311134370_);" points="1235.8,111.8 1215.1,164.6 
				1174.4,164.6 1193.7,111.8 			"/>
		</g>
		<g>
			
				<linearGradient id="SVGID_00000152237797675401192260000014662234847772719754_" gradientUnits="userSpaceOnUse" x1="975.95" y1="1062.2" x2="975.95" y2="1010.5" gradientTransform="matrix(1 0 0 1 0 -830)">
				<stop  offset="0" style="stop-color:#270000"/>
				<stop  offset="1" style="stop-color:#8E0000"/>
			</linearGradient>
			<polygon style="fill:url(#SVGID_00000152237797675401192260000014662234847772719754_);" points="1013.9,180.5 1000.5,232.2 
				938,232.2 949.2,180.5 			"/>
			
				<linearGradient id="SVGID_00000098939100579703843570000012523180006543796872_" gradientUnits="userSpaceOnUse" x1="1060.75" y1="1062.2" x2="1060.75" y2="1010.5" gradientTransform="matrix(1 0 0 1 0 -830)">
				<stop  offset="0" style="stop-color:#270000"/>
				<stop  offset="1" style="stop-color:#8E0000"/>
			</linearGradient>
			<polygon style="fill:url(#SVGID_00000098939100579703843570000012523180006543796872_);" points="1100.2,180.5 1083.7,232.2 
				1021.3,232.2 1035.5,180.5 			"/>
			
				<linearGradient id="SVGID_00000142155805678058403890000016903218531716035237_" gradientUnits="userSpaceOnUse" x1="1255.51" y1="1402.3201" x2="1255.51" y2="1236.8201" gradientTransform="matrix(1 0 0 1 -240.41 -1221.8201)">
				<stop  offset="0" style="stop-color:#B10003"/>
				<stop  offset="1" style="stop-color:#FF342A"/>
			</linearGradient>
			<path style="fill:url(#SVGID_00000142155805678058403890000016903218531716035237_);" d="M930,15h142l28.2,165.5h-64.7
				l-10.1-68.6h-21l9.6,68.6h-64.7L930,15z M1020.5,78.8l-4.7-32.3h-20.5l4.5,32.3H1020.5"/>
		</g>
		<g>
			
				<linearGradient id="SVGID_00000114760749515066085990000010700006749651300027_" gradientUnits="userSpaceOnUse" x1="785.2" y1="1062.2" x2="785.2" y2="1010.5" gradientTransform="matrix(1 0 0 1 0 -830)">
				<stop  offset="0" style="stop-color:#270000"/>
				<stop  offset="1" style="stop-color:#8E0000"/>
			</linearGradient>
			<polygon style="fill:url(#SVGID_00000114760749515066085990000010700006749651300027_);" points="819.8,180.5 813.1,232.2 
				750.6,232.2 755.1,180.5 			"/>
			
				<linearGradient id="SVGID_00000132781688656907443620000012581402152550196633_" gradientUnits="userSpaceOnUse" x1="837.55" y1="1010.5" x2="837.55" y2="845" gradientTransform="matrix(1 0 0 1 0 -830)">
				<stop  offset="0" style="stop-color:#B10003"/>
				<stop  offset="1" style="stop-color:#FF342A"/>
			</linearGradient>
			<polygon style="fill:url(#SVGID_00000132781688656907443620000012581402152550196633_);" points="909.7,15 927.7,180.5 
				863,180.5 860,145.7 838.7,145.7 836.1,111.8 815,111.8 819.8,180.5 755.1,180.5 747.4,15 808.3,15 810.5,46.5 831,46.5 
				833.5,78.8 854.3,78.8 848.9,15 			"/>
			
				<linearGradient id="SVGID_00000170261346657405850520000017092947299146287538_" gradientUnits="userSpaceOnUse" x1="891.2" y1="1062.2" x2="891.2" y2="1010.5" gradientTransform="matrix(1 0 0 1 0 -830)">
				<stop  offset="0" style="stop-color:#270000"/>
				<stop  offset="1" style="stop-color:#8E0000"/>
			</linearGradient>
			<polygon style="fill:url(#SVGID_00000170261346657405850520000017092947299146287538_);" points="927.7,180.5 917.2,232.2 
				854.7,232.2 863,180.5 			"/>
		</g>
		<g>
			
				<linearGradient id="SVGID_00000150812264491480381650000007776061229853204647_" gradientUnits="userSpaceOnUse" x1="700.4" y1="1062.2" x2="700.4" y2="1010.5" gradientTransform="matrix(1 0 0 1 0 -830)">
				<stop  offset="0" style="stop-color:#270000"/>
				<stop  offset="1" style="stop-color:#8E0000"/>
			</linearGradient>
			<polygon style="fill:url(#SVGID_00000150812264491480381650000007776061229853204647_);" points="733.5,180.5 729.8,232.2 
				667.3,232.2 668.8,180.5 			"/>
			
				<linearGradient id="SVGID_00000041264031984309226520000009108151833371223691_" gradientUnits="userSpaceOnUse" x1="699.9" y1="1010.5" x2="699.9" y2="845" gradientTransform="matrix(1 0 0 1 0 -830)">
				<stop  offset="0" style="stop-color:#B10003"/>
				<stop  offset="1" style="stop-color:#FF342A"/>
			</linearGradient>
			<polygon style="fill:url(#SVGID_00000041264031984309226520000009108151833371223691_);" points="727.1,15 733.5,180.5 
				668.8,180.5 666.3,15 			"/>
		</g>
		<g>
			
				<linearGradient id="SVGID_00000069355772412185043070000017269784410618669496_" gradientUnits="userSpaceOnUse" x1="572.15" y1="1062.2" x2="572.15" y2="1010.5" gradientTransform="matrix(1 0 0 1 0 -830)">
				<stop  offset="0" style="stop-color:#270000"/>
				<stop  offset="1" style="stop-color:#8E0000"/>
			</linearGradient>
			<polygon style="fill:url(#SVGID_00000069355772412185043070000017269784410618669496_);" points="604.1,180.5 604.9,232.2 
				542.4,232.2 539.4,180.5 			"/>
			
				<linearGradient id="SVGID_00000085230967434798130240000001324721402467251637_" gradientUnits="userSpaceOnUse" x1="574.35" y1="1010.5" x2="574.35" y2="845" gradientTransform="matrix(1 0 0 1 0 -830)">
				<stop  offset="0" style="stop-color:#B10003"/>
				<stop  offset="1" style="stop-color:#FF342A"/>
			</linearGradient>
			<polygon style="fill:url(#SVGID_00000085230967434798130240000001324721402467251637_);" points="646,15 646.2,46.5 605.2,46.5 
				604.1,180.5 539.4,180.5 543.6,46.5 502.5,46.5 504,15 			"/>
		</g>
	</g>
</g>
</svg>
